# xmcd
#
# Track frame offsets:
#	150
#	11684
#	24650
#	45166
#	56915
#	68785
#	82961
#	94293
#	109932
#	131964
#	146265
#	165051
#	200837
#	212719
#	225573
#
# Disc length: 3226 seconds
#
# Revision: 0
# Processed by: cddbd v1.5.2PL0 Copyright (c) Steve Scherf et al.
# Submitted via: audiograbber 1.83.01
#
DISCID=ca0c980f
DTITLE=Carreras, Domingo and Pavarotti - Christmas with the 3 Legendary Tenors
DYEAR=2006
DGENRE=Christmas
TTITLE0=José Carreras - White Christmas
TTITLE1=José Carreras - Adeste Fideles (O Come ye all faithful)
TTITLE2=José Carreras - Misericordia
TTITLE3=José Carreras - Ave Verum Corpus
TTITLE4=José Carreras - Drummer Boy
TTITLE5=José Carreras - Mille Cherubini in Coro (Tausend Englein im Choir)
TTITLE6=José Carreras - Silent Night
TTITLE7=Placido Domingo - Ingemisco (Messa de Requiem)
TTITLE8=Luciano Pavarotti - Ave Maria (Live)
TTITLE9=Luciano Pavarotti - Agnus Dei (Live)
TTITLE10=Luciano Pavarotti - Gesu Bambino (Live)
TTITLE11=Luciano Pavarotti - Pieta Signore (Live)
TTITLE12=Luciano Pavarotti - O Holy Night, The Christmas Song, Cantique Noël (L
TTITLE12=ive)
TTITLE13=Luciano Pavarotti - O Come ye all faithful (Live)
TTITLE14=Luciano Pavarotti - Panis Angelicus (Live)
EXTD=
EXTT0=
EXTT1=
EXTT2=
EXTT3=
EXTT4=
EXTT5=
EXTT6=
EXTT7=
EXTT8=
EXTT9=
EXTT10=
EXTT11=
EXTT12=
EXTT13=
EXTT14=
PLAYORDER=
